<svg width="487" height="530" viewBox="0 0 487 530" fill="none" xmlns="http://www.w3.org/2000/svg">
<path d="M249.49 240.712V173.128C249.49 163.784 244.626 160.84 237.202 160.84H187.922C181.778 160.84 177.298 162.632 177.298 169.288C177.298 175.944 181.778 177.736 187.922 177.736H228.498V197.704H192.914C187.41 197.704 183.058 199.24 183.058 205.768C183.058 212.296 187.41 213.832 192.914 213.832H228.498V236.104H186.898C180.754 236.104 176.274 237.896 176.274 244.552C176.274 251.208 180.754 253 186.898 253H237.202C244.626 253 249.49 250.056 249.49 240.712Z" fill="white"/>
<path d="M259.021 240.712V169.672C259.021 163.4 263.117 159.176 269.517 159.176C275.917 159.176 280.013 163.4 280.013 169.672V235.336H315.085C321.101 235.336 325.965 238.408 325.965 244.168C325.965 249.928 321.101 253 315.085 253H271.309C263.885 253 259.021 250.056 259.021 240.712Z" fill="white"/>
<rect x="84.4142" y="207.918" width="222.744" height="224.572" rx="61" transform="rotate(-45 84.4142 207.918)" stroke="white" stroke-width="2"/>
<rect x="35.8284" y="209.918" width="292.869" height="293.283" rx="91" transform="rotate(-45 35.8284 209.918)" stroke="white" stroke-width="4"/>
<g style="mix-blend-mode:difference">
<path d="M14.0117 498.444L11.2127 490.298L8.23806 498.444H14.0117ZM9.90739 487.562H12.7314L19.4213 506H16.6851L14.815 500.477H7.52263L5.52697 506H2.96651L9.90739 487.562ZM27.6801 487.562H35.9765C37.6165 487.562 38.9386 488.027 39.9427 488.955C40.9468 489.876 41.4489 491.173 41.4489 492.846C41.4489 494.285 41.0012 495.541 40.1059 496.612C39.2105 497.674 37.8341 498.206 35.9765 498.206H30.1778V506H27.6801V487.562ZM38.926 492.859C38.926 491.503 38.424 490.583 37.4199 490.097C36.8676 489.838 36.1104 489.708 35.1481 489.708H30.1778V496.097H35.1481C36.2693 496.097 37.1772 495.859 37.8717 495.382C38.5746 494.905 38.926 494.064 38.926 492.859ZM44.3482 487.562H46.6074V506H44.3482V487.562ZM51.7409 502.423C51.7409 503.076 51.9794 503.59 52.4564 503.967C52.9333 504.343 53.4981 504.531 54.1508 504.531C54.9457 504.531 55.7155 504.347 56.4602 503.979C57.7154 503.368 58.3429 502.368 58.3429 500.979V499.16C58.0668 499.335 57.7112 499.482 57.2761 499.599C56.841 499.716 56.4142 499.8 55.9958 499.85L54.6277 500.026C53.8077 500.134 53.1927 500.306 52.7827 500.54C52.0882 500.933 51.7409 501.561 51.7409 502.423ZM57.2133 497.854C57.7321 497.787 58.0794 497.57 58.2551 497.202C58.3555 497.001 58.4057 496.712 58.4057 496.335C58.4057 495.566 58.1296 495.009 57.5773 494.666C57.0334 494.315 56.251 494.139 55.2302 494.139C54.0504 494.139 53.2136 494.457 52.7199 495.093C52.4438 495.444 52.2639 495.967 52.1802 496.662H50.0716C50.1134 495.005 50.649 493.855 51.6782 493.21C52.7158 492.558 53.9165 492.231 55.2804 492.231C56.8619 492.231 58.1463 492.532 59.1337 493.135C60.1127 493.737 60.6022 494.675 60.6022 495.946V503.691C60.6022 503.925 60.6482 504.113 60.7402 504.255C60.8406 504.398 61.0456 504.469 61.3552 504.469C61.4557 504.469 61.5686 504.465 61.6941 504.456C61.8196 504.439 61.9535 504.419 62.0958 504.393V506.063C61.7443 506.163 61.4766 506.226 61.2925 506.251C61.1084 506.276 60.8574 506.289 60.5394 506.289C59.7612 506.289 59.1964 506.013 58.845 505.46C58.6609 505.167 58.5312 504.753 58.4559 504.218C57.9957 504.82 57.3346 505.343 56.4728 505.787C55.6109 506.23 54.6612 506.452 53.6236 506.452C52.3769 506.452 51.356 506.075 50.5611 505.322C49.7746 504.561 49.3813 503.611 49.3813 502.473C49.3813 501.226 49.7704 500.26 50.5486 499.574C51.3267 498.888 52.3476 498.465 53.6111 498.306L57.2133 497.854ZM64.7692 488.805H67.0535V492.558H69.1998V494.403H67.0535V503.176C67.0535 503.645 67.2125 503.958 67.5305 504.117C67.7062 504.209 67.9991 504.255 68.4091 504.255C68.5179 504.255 68.635 504.255 68.7605 504.255C68.886 504.247 69.0325 504.234 69.1998 504.218V506C68.9404 506.075 68.6685 506.13 68.384 506.163C68.1079 506.197 67.8066 506.213 67.4803 506.213C66.426 506.213 65.7106 505.946 65.334 505.41C64.9575 504.866 64.7692 504.163 64.7692 503.301V494.403H62.9493V492.558H64.7692V488.805ZM72.0364 490.512C72.0699 489.575 72.2331 488.888 72.5259 488.453C73.0531 487.683 74.0697 487.299 75.5759 487.299C75.7181 487.299 75.8646 487.303 76.0152 487.311C76.1658 487.319 76.3373 487.332 76.5298 487.349V489.407C76.2955 489.39 76.124 489.382 76.0152 489.382C75.9148 489.374 75.8185 489.37 75.7265 489.37C75.0404 489.37 74.6304 489.549 74.4965 489.909C74.3626 490.261 74.2957 491.164 74.2957 492.62H76.5298V494.403H74.2706V506H72.0364V494.403H70.1663V492.62H72.0364V490.512ZM83.9602 504.544C85.458 504.544 86.483 503.979 87.0352 502.85C87.5959 501.712 87.8762 500.448 87.8762 499.059C87.8762 497.804 87.6754 496.783 87.2737 495.997C86.6378 494.758 85.5416 494.139 83.9853 494.139C82.6046 494.139 81.6005 494.666 80.973 495.72C80.3454 496.775 80.0316 498.047 80.0316 499.536C80.0316 500.967 80.3454 502.159 80.973 503.113C81.6005 504.067 82.5963 504.544 83.9602 504.544ZM84.048 492.168C85.7801 492.168 87.2444 492.746 88.441 493.901C89.6376 495.055 90.2358 496.754 90.2358 498.996C90.2358 501.164 89.7087 502.954 88.6544 504.368C87.6001 505.782 85.9642 506.49 83.7468 506.49C81.8976 506.49 80.4291 505.866 79.3413 504.619C78.2535 503.364 77.7096 501.682 77.7096 499.574C77.7096 497.314 78.2828 495.515 79.4291 494.177C80.5755 492.838 82.1151 492.168 84.048 492.168ZM92.9971 492.558H95.1434V494.88C95.3191 494.428 95.75 493.88 96.4362 493.235C97.1223 492.583 97.9131 492.256 98.8084 492.256C98.8502 492.256 98.9213 492.26 99.0218 492.269C99.1222 492.277 99.2937 492.294 99.5364 492.319V494.704C99.4025 494.679 99.277 494.662 99.1598 494.654C99.051 494.645 98.9297 494.641 98.7958 494.641C97.6578 494.641 96.7834 495.009 96.1726 495.746C95.5618 496.474 95.2564 497.314 95.2564 498.268V506H92.9971V492.558ZM101.494 492.558H103.729V494.465C104.264 493.804 104.749 493.323 105.184 493.022C105.929 492.512 106.774 492.256 107.72 492.256C108.791 492.256 109.653 492.52 110.305 493.047C110.674 493.348 111.008 493.792 111.309 494.377C111.812 493.658 112.401 493.127 113.079 492.783C113.757 492.432 114.518 492.256 115.364 492.256C117.171 492.256 118.401 492.909 119.054 494.214C119.405 494.917 119.581 495.863 119.581 497.051V506H117.234V496.662C117.234 495.766 117.008 495.151 116.556 494.817C116.112 494.482 115.569 494.315 114.924 494.315C114.037 494.315 113.272 494.612 112.627 495.206C111.991 495.8 111.673 496.792 111.673 498.181V506H109.377V497.227C109.377 496.315 109.268 495.649 109.05 495.231C108.707 494.603 108.067 494.29 107.13 494.29C106.276 494.29 105.498 494.62 104.795 495.281C104.101 495.942 103.754 497.139 103.754 498.871V506H101.494V492.558ZM130.626 490.512C130.659 489.575 130.823 488.888 131.115 488.453C131.643 487.683 132.659 487.299 134.165 487.299C134.308 487.299 134.454 487.303 134.605 487.311C134.755 487.319 134.927 487.332 135.119 487.349V489.407C134.885 489.39 134.714 489.382 134.605 489.382C134.504 489.374 134.408 489.37 134.316 489.37C133.63 489.37 133.22 489.549 133.086 489.909C132.952 490.261 132.885 491.164 132.885 492.62H135.119V494.403H132.86V506H130.626V494.403H128.756V492.62H130.626V490.512ZM142.55 504.544C144.048 504.544 145.073 503.979 145.625 502.85C146.185 501.712 146.466 500.448 146.466 499.059C146.466 497.804 146.265 496.783 145.863 495.997C145.227 494.758 144.131 494.139 142.575 494.139C141.194 494.139 140.19 494.666 139.563 495.72C138.935 496.775 138.621 498.047 138.621 499.536C138.621 500.967 138.935 502.159 139.563 503.113C140.19 504.067 141.186 504.544 142.55 504.544ZM142.638 492.168C144.37 492.168 145.834 492.746 147.031 493.901C148.227 495.055 148.825 496.754 148.825 498.996C148.825 501.164 148.298 502.954 147.244 504.368C146.19 505.782 144.554 506.49 142.336 506.49C140.487 506.49 139.019 505.866 137.931 504.619C136.843 503.364 136.299 501.682 136.299 499.574C136.299 497.314 136.872 495.515 138.019 494.177C139.165 492.838 140.705 492.168 142.638 492.168ZM151.587 492.558H153.733V494.88C153.909 494.428 154.34 493.88 155.026 493.235C155.712 492.583 156.503 492.256 157.398 492.256C157.44 492.256 157.511 492.26 157.611 492.269C157.712 492.277 157.883 492.294 158.126 492.319V494.704C157.992 494.679 157.867 494.662 157.749 494.654C157.641 494.645 157.519 494.641 157.385 494.641C156.247 494.641 155.373 495.009 154.762 495.746C154.151 496.474 153.846 497.314 153.846 498.268V506H151.587V492.558ZM169.171 500.051C169.23 501.097 169.476 501.946 169.912 502.599C170.74 503.82 172.2 504.431 174.292 504.431C175.229 504.431 176.083 504.297 176.852 504.029C178.342 503.511 179.087 502.582 179.087 501.243C179.087 500.239 178.773 499.524 178.145 499.097C177.509 498.678 176.514 498.314 175.158 498.005L172.66 497.44C171.029 497.072 169.874 496.666 169.196 496.223C168.025 495.453 167.439 494.302 167.439 492.771C167.439 491.114 168.012 489.754 169.159 488.692C170.305 487.629 171.928 487.098 174.028 487.098C175.961 487.098 177.601 487.566 178.949 488.503C180.304 489.432 180.982 490.922 180.982 492.972H178.635C178.509 491.984 178.242 491.227 177.831 490.7C177.07 489.738 175.777 489.257 173.953 489.257C172.48 489.257 171.422 489.566 170.778 490.185C170.133 490.805 169.811 491.524 169.811 492.344C169.811 493.248 170.188 493.909 170.941 494.327C171.435 494.595 172.552 494.93 174.292 495.331L176.878 495.921C178.124 496.206 179.087 496.595 179.764 497.089C180.936 497.95 181.522 499.201 181.522 500.841C181.522 502.883 180.777 504.343 179.287 505.222C177.806 506.1 176.083 506.54 174.116 506.54C171.824 506.54 170.029 505.954 168.732 504.783C167.435 503.619 166.799 502.042 166.824 500.051H169.171ZM189.567 492.168C191.081 492.168 192.312 492.537 193.257 493.273C194.211 494.009 194.784 495.277 194.977 497.076H192.78C192.646 496.248 192.341 495.561 191.864 495.018C191.387 494.465 190.621 494.189 189.567 494.189C188.128 494.189 187.099 494.892 186.479 496.298C186.078 497.21 185.877 498.335 185.877 499.674C185.877 501.021 186.161 502.155 186.73 503.076C187.299 503.996 188.195 504.456 189.416 504.456C190.354 504.456 191.094 504.172 191.638 503.603C192.19 503.025 192.571 502.239 192.78 501.243H194.977C194.726 503.025 194.098 504.331 193.094 505.159C192.09 505.979 190.805 506.389 189.241 506.389C187.483 506.389 186.082 505.749 185.036 504.469C183.99 503.18 183.467 501.574 183.467 499.649C183.467 497.289 184.04 495.453 185.187 494.139C186.333 492.825 187.793 492.168 189.567 492.168ZM197.236 487.499H199.495V494.377C200.031 493.7 200.512 493.223 200.938 492.947C201.666 492.47 202.574 492.231 203.662 492.231C205.612 492.231 206.934 492.913 207.628 494.277C208.005 495.022 208.193 496.055 208.193 497.377V506H205.871V497.528C205.871 496.54 205.746 495.817 205.495 495.356C205.085 494.62 204.315 494.252 203.185 494.252C202.248 494.252 201.399 494.574 200.637 495.218C199.876 495.863 199.495 497.08 199.495 498.871V506H197.236V487.499ZM216.879 504.544C218.376 504.544 219.401 503.979 219.954 502.85C220.514 501.712 220.795 500.448 220.795 499.059C220.795 497.804 220.594 496.783 220.192 495.997C219.556 494.758 218.46 494.139 216.904 494.139C215.523 494.139 214.519 494.666 213.891 495.72C213.264 496.775 212.95 498.047 212.95 499.536C212.95 500.967 213.264 502.159 213.891 503.113C214.519 504.067 215.515 504.544 216.879 504.544ZM216.967 492.168C218.699 492.168 220.163 492.746 221.359 493.901C222.556 495.055 223.154 496.754 223.154 498.996C223.154 501.164 222.627 502.954 221.573 504.368C220.519 505.782 218.883 506.49 216.665 506.49C214.816 506.49 213.348 505.866 212.26 504.619C211.172 503.364 210.628 501.682 210.628 499.574C210.628 497.314 211.201 495.515 212.348 494.177C213.494 492.838 215.034 492.168 216.967 492.168ZM225.916 487.562H228.175V506H225.916V487.562ZM233.308 502.423C233.308 503.076 233.547 503.59 234.024 503.967C234.501 504.343 235.066 504.531 235.718 504.531C236.513 504.531 237.283 504.347 238.028 503.979C239.283 503.368 239.91 502.368 239.91 500.979V499.16C239.634 499.335 239.279 499.482 238.843 499.599C238.408 499.716 237.982 499.8 237.563 499.85L236.195 500.026C235.375 500.134 234.76 500.306 234.35 500.54C233.656 500.933 233.308 501.561 233.308 502.423ZM238.781 497.854C239.299 497.787 239.647 497.57 239.822 497.202C239.923 497.001 239.973 496.712 239.973 496.335C239.973 495.566 239.697 495.009 239.145 494.666C238.601 494.315 237.818 494.139 236.798 494.139C235.618 494.139 234.781 494.457 234.287 495.093C234.011 495.444 233.831 495.967 233.748 496.662H231.639C231.681 495.005 232.216 493.855 233.246 493.21C234.283 492.558 235.484 492.231 236.848 492.231C238.429 492.231 239.714 492.532 240.701 493.135C241.68 493.737 242.17 494.675 242.17 495.946V503.691C242.17 503.925 242.216 504.113 242.308 504.255C242.408 504.398 242.613 504.469 242.923 504.469C243.023 504.469 243.136 504.465 243.262 504.456C243.387 504.439 243.521 504.419 243.663 504.393V506.063C243.312 506.163 243.044 506.226 242.86 506.251C242.676 506.276 242.425 506.289 242.107 506.289C241.329 506.289 240.764 506.013 240.412 505.46C240.228 505.167 240.099 504.753 240.023 504.218C239.563 504.82 238.902 505.343 238.04 505.787C237.178 506.23 236.229 506.452 235.191 506.452C233.944 506.452 232.923 506.075 232.128 505.322C231.342 504.561 230.949 503.611 230.949 502.473C230.949 501.226 231.338 500.26 232.116 499.574C232.894 498.888 233.915 498.465 235.178 498.306L238.781 497.854ZM245.947 492.558H248.094V494.88C248.269 494.428 248.7 493.88 249.387 493.235C250.073 492.583 250.863 492.256 251.759 492.256C251.801 492.256 251.872 492.26 251.972 492.269C252.073 492.277 252.244 492.294 252.487 492.319V494.704C252.353 494.679 252.227 494.662 252.11 494.654C252.001 494.645 251.88 494.641 251.746 494.641C250.608 494.641 249.734 495.009 249.123 495.746C248.512 496.474 248.207 497.314 248.207 498.268V506H245.947V492.558ZM254.508 487.562H256.767V506H254.508V487.562ZM268.565 492.558H271.063C270.745 493.419 270.038 495.386 268.942 498.457C268.122 500.766 267.435 502.649 266.883 504.105C265.578 507.535 264.657 509.627 264.122 510.38C263.586 511.133 262.666 511.51 261.361 511.51C261.043 511.51 260.796 511.497 260.62 511.472C260.453 511.447 260.243 511.401 259.992 511.334V509.276C260.386 509.385 260.67 509.452 260.846 509.477C261.022 509.502 261.176 509.514 261.31 509.514C261.729 509.514 262.034 509.443 262.227 509.301C262.427 509.167 262.595 509 262.729 508.799C262.77 508.732 262.921 508.389 263.18 507.77C263.44 507.151 263.628 506.69 263.745 506.389L258.775 492.558H261.335L264.938 503.502L268.565 492.558ZM289.049 496.009C290.22 496.009 291.145 495.775 291.823 495.306C292.509 494.838 292.852 493.993 292.852 492.771C292.852 491.457 292.375 490.562 291.421 490.085C290.911 489.834 290.229 489.708 289.375 489.708H283.275V496.009H289.049ZM280.777 487.562H289.312C290.718 487.562 291.877 487.767 292.789 488.177C294.521 488.964 295.387 490.415 295.387 492.532C295.387 493.637 295.157 494.541 294.697 495.244C294.245 495.946 293.609 496.511 292.789 496.938C293.509 497.231 294.048 497.616 294.408 498.093C294.776 498.57 294.981 499.344 295.023 500.415L295.111 502.887C295.136 503.59 295.195 504.113 295.287 504.456C295.437 505.042 295.705 505.418 296.09 505.586V506H293.028C292.944 505.841 292.877 505.636 292.827 505.385C292.776 505.134 292.735 504.649 292.701 503.929L292.551 500.854C292.492 499.649 292.044 498.842 291.208 498.432C290.731 498.206 289.982 498.093 288.961 498.093H283.275V506H280.777V487.562ZM304.349 492.256C305.303 492.256 306.227 492.482 307.123 492.934C308.018 493.378 308.7 493.955 309.168 494.666C309.62 495.344 309.922 496.135 310.072 497.038C310.206 497.658 310.273 498.645 310.273 500H300.42C300.462 501.364 300.784 502.461 301.387 503.289C301.989 504.109 302.922 504.519 304.186 504.519C305.365 504.519 306.307 504.13 307.01 503.352C307.411 502.9 307.696 502.377 307.863 501.783H310.085C310.026 502.276 309.83 502.829 309.495 503.44C309.168 504.042 308.8 504.536 308.39 504.921C307.704 505.59 306.855 506.042 305.842 506.276C305.298 506.41 304.683 506.477 303.997 506.477C302.324 506.477 300.906 505.87 299.742 504.657C298.579 503.435 297.998 501.728 297.998 499.536C297.998 497.377 298.584 495.624 299.755 494.277C300.926 492.93 302.458 492.256 304.349 492.256ZM307.951 498.206C307.859 497.227 307.646 496.444 307.311 495.859C306.692 494.771 305.658 494.227 304.211 494.227C303.173 494.227 302.303 494.603 301.6 495.356C300.897 496.101 300.525 497.051 300.483 498.206H307.951ZM314.402 501.783C314.469 502.536 314.658 503.113 314.967 503.515C315.536 504.243 316.524 504.607 317.929 504.607C318.766 504.607 319.502 504.427 320.138 504.067C320.774 503.699 321.092 503.134 321.092 502.373C321.092 501.795 320.837 501.356 320.327 501.055C320 500.871 319.356 500.657 318.394 500.415L316.599 499.963C315.453 499.678 314.607 499.36 314.064 499.009C313.093 498.398 312.608 497.553 312.608 496.474C312.608 495.202 313.064 494.172 313.976 493.386C314.896 492.599 316.13 492.206 317.678 492.206C319.703 492.206 321.163 492.8 322.059 493.988C322.619 494.741 322.891 495.553 322.875 496.423H320.741C320.699 495.913 320.519 495.449 320.201 495.03C319.682 494.436 318.783 494.139 317.503 494.139C316.649 494.139 316.001 494.302 315.557 494.629C315.122 494.955 314.904 495.386 314.904 495.921C314.904 496.507 315.193 496.976 315.771 497.327C316.105 497.536 316.599 497.72 317.252 497.879L318.745 498.243C320.368 498.637 321.456 499.017 322.009 499.385C322.887 499.963 323.326 500.871 323.326 502.109C323.326 503.306 322.87 504.339 321.958 505.209C321.055 506.079 319.674 506.515 317.816 506.515C315.817 506.515 314.398 506.063 313.561 505.159C312.733 504.247 312.29 503.122 312.231 501.783H314.402ZM331.51 492.256C332.464 492.256 333.388 492.482 334.284 492.934C335.179 493.378 335.861 493.955 336.33 494.666C336.781 495.344 337.083 496.135 337.233 497.038C337.367 497.658 337.434 498.645 337.434 500H327.581C327.623 501.364 327.945 502.461 328.548 503.289C329.15 504.109 330.083 504.519 331.347 504.519C332.527 504.519 333.468 504.13 334.171 503.352C334.572 502.9 334.857 502.377 335.024 501.783H337.246C337.187 502.276 336.991 502.829 336.656 503.44C336.33 504.042 335.961 504.536 335.551 504.921C334.865 505.59 334.016 506.042 333.003 506.276C332.46 506.41 331.845 506.477 331.158 506.477C329.485 506.477 328.067 505.87 326.904 504.657C325.74 503.435 325.159 501.728 325.159 499.536C325.159 497.377 325.745 495.624 326.916 494.277C328.088 492.93 329.619 492.256 331.51 492.256ZM335.112 498.206C335.02 497.227 334.807 496.444 334.472 495.859C333.853 494.771 332.819 494.227 331.372 494.227C330.334 494.227 329.464 494.603 328.761 495.356C328.058 496.101 327.686 497.051 327.644 498.206H335.112ZM341.953 502.423C341.953 503.076 342.191 503.59 342.668 503.967C343.145 504.343 343.71 504.531 344.362 504.531C345.157 504.531 345.927 504.347 346.672 503.979C347.927 503.368 348.555 502.368 348.555 500.979V499.16C348.278 499.335 347.923 499.482 347.488 499.599C347.053 499.716 346.626 499.8 346.207 499.85L344.839 500.026C344.019 500.134 343.404 500.306 342.994 500.54C342.3 500.933 341.953 501.561 341.953 502.423ZM347.425 497.854C347.944 497.787 348.291 497.57 348.467 497.202C348.567 497.001 348.617 496.712 348.617 496.335C348.617 495.566 348.341 495.009 347.789 494.666C347.245 494.315 346.463 494.139 345.442 494.139C344.262 494.139 343.425 494.457 342.932 495.093C342.655 495.444 342.476 495.967 342.392 496.662H340.283C340.325 495.005 340.861 493.855 341.89 493.21C342.927 492.558 344.128 492.231 345.492 492.231C347.073 492.231 348.358 492.532 349.345 493.135C350.324 493.737 350.814 494.675 350.814 495.946V503.691C350.814 503.925 350.86 504.113 350.952 504.255C351.052 504.398 351.257 504.469 351.567 504.469C351.667 504.469 351.78 504.465 351.906 504.456C352.031 504.439 352.165 504.419 352.307 504.393V506.063C351.956 506.163 351.688 506.226 351.504 506.251C351.32 506.276 351.069 506.289 350.751 506.289C349.973 506.289 349.408 506.013 349.057 505.46C348.873 505.167 348.743 504.753 348.668 504.218C348.207 504.82 347.546 505.343 346.684 505.787C345.823 506.23 344.873 506.452 343.835 506.452C342.588 506.452 341.568 506.075 340.773 505.322C339.986 504.561 339.593 503.611 339.593 502.473C339.593 501.226 339.982 500.26 340.76 499.574C341.538 498.888 342.559 498.465 343.823 498.306L347.425 497.854ZM354.592 492.558H356.738V494.88C356.914 494.428 357.345 493.88 358.031 493.235C358.717 492.583 359.508 492.256 360.403 492.256C360.445 492.256 360.516 492.26 360.616 492.269C360.717 492.277 360.888 492.294 361.131 492.319V494.704C360.997 494.679 360.872 494.662 360.754 494.654C360.646 494.645 360.524 494.641 360.39 494.641C359.252 494.641 358.378 495.009 357.767 495.746C357.156 496.474 356.851 497.314 356.851 498.268V506H354.592V492.558ZM368.273 492.168C369.787 492.168 371.017 492.537 371.963 493.273C372.917 494.009 373.49 495.277 373.682 497.076H371.486C371.352 496.248 371.047 495.561 370.57 495.018C370.093 494.465 369.327 494.189 368.273 494.189C366.833 494.189 365.804 494.892 365.185 496.298C364.783 497.21 364.583 498.335 364.583 499.674C364.583 501.021 364.867 502.155 365.436 503.076C366.005 503.996 366.9 504.456 368.122 504.456C369.059 504.456 369.8 504.172 370.344 503.603C370.896 503.025 371.277 502.239 371.486 501.243H373.682C373.431 503.025 372.804 504.331 371.8 505.159C370.795 505.979 369.511 506.389 367.946 506.389C366.189 506.389 364.788 505.749 363.742 504.469C362.696 503.18 362.173 501.574 362.173 499.649C362.173 497.289 362.746 495.453 363.892 494.139C365.039 492.825 366.499 492.168 368.273 492.168ZM375.942 487.499H378.201V494.377C378.736 493.7 379.217 493.223 379.644 492.947C380.372 492.47 381.28 492.231 382.368 492.231C384.317 492.231 385.64 492.913 386.334 494.277C386.711 495.022 386.899 496.055 386.899 497.377V506H384.577V497.528C384.577 496.54 384.451 495.817 384.2 495.356C383.79 494.62 383.02 494.252 381.891 494.252C380.954 494.252 380.104 494.574 379.343 495.218C378.581 495.863 378.201 497.08 378.201 498.871V506H375.942V487.499ZM399.337 500.051C399.396 501.097 399.643 501.946 400.078 502.599C400.906 503.82 402.366 504.431 404.458 504.431C405.395 504.431 406.249 504.297 407.019 504.029C408.508 503.511 409.253 502.582 409.253 501.243C409.253 500.239 408.939 499.524 408.311 499.097C407.675 498.678 406.68 498.314 405.324 498.005L402.826 497.44C401.195 497.072 400.04 496.666 399.362 496.223C398.191 495.453 397.605 494.302 397.605 492.771C397.605 491.114 398.178 489.754 399.325 488.692C400.471 487.629 402.094 487.098 404.195 487.098C406.127 487.098 407.767 487.566 409.115 488.503C410.47 489.432 411.148 490.922 411.148 492.972H408.801C408.675 491.984 408.408 491.227 407.998 490.7C407.236 489.738 405.943 489.257 404.119 489.257C402.647 489.257 401.588 489.566 400.944 490.185C400.299 490.805 399.977 491.524 399.977 492.344C399.977 493.248 400.354 493.909 401.107 494.327C401.601 494.595 402.718 494.93 404.458 495.331L407.044 495.921C408.29 496.206 409.253 496.595 409.93 497.089C411.102 497.95 411.688 499.201 411.688 500.841C411.688 502.883 410.943 504.343 409.454 505.222C407.972 506.1 406.249 506.54 404.282 506.54C401.99 506.54 400.195 505.954 398.898 504.783C397.601 503.619 396.965 502.042 396.99 500.051H399.337ZM414.549 487.499H416.809V494.377C417.344 493.7 417.825 493.223 418.252 492.947C418.98 492.47 419.888 492.231 420.976 492.231C422.925 492.231 424.247 492.913 424.942 494.277C425.318 495.022 425.507 496.055 425.507 497.377V506H423.185V497.528C423.185 496.54 423.059 495.817 422.808 495.356C422.398 494.62 421.628 494.252 420.499 494.252C419.562 494.252 418.712 494.574 417.951 495.218C417.189 495.863 416.809 497.08 416.809 498.871V506H414.549V487.499ZM430.59 502.423C430.59 503.076 430.828 503.59 431.305 503.967C431.782 504.343 432.347 504.531 433 504.531C433.795 504.531 434.565 504.347 435.309 503.979C436.564 503.368 437.192 502.368 437.192 500.979V499.16C436.916 499.335 436.56 499.482 436.125 499.599C435.69 499.716 435.263 499.8 434.845 499.85L433.477 500.026C432.657 500.134 432.042 500.306 431.632 500.54C430.937 500.933 430.59 501.561 430.59 502.423ZM436.062 497.854C436.581 497.787 436.928 497.57 437.104 497.202C437.205 497.001 437.255 496.712 437.255 496.335C437.255 495.566 436.979 495.009 436.426 494.666C435.882 494.315 435.1 494.139 434.079 494.139C432.899 494.139 432.063 494.457 431.569 495.093C431.293 495.444 431.113 495.967 431.029 496.662H428.921C428.962 495.005 429.498 493.855 430.527 493.21C431.565 492.558 432.766 492.231 434.129 492.231C435.711 492.231 436.995 492.532 437.983 493.135C438.962 493.737 439.451 494.675 439.451 495.946V503.691C439.451 503.925 439.497 504.113 439.589 504.255C439.69 504.398 439.895 504.469 440.204 504.469C440.305 504.469 440.418 504.465 440.543 504.456C440.669 504.439 440.803 504.419 440.945 504.393V506.063C440.593 506.163 440.326 506.226 440.142 506.251C439.957 506.276 439.706 506.289 439.388 506.289C438.61 506.289 438.045 506.013 437.694 505.46C437.51 505.167 437.38 504.753 437.305 504.218C436.845 504.82 436.184 505.343 435.322 505.787C434.46 506.23 433.51 506.452 432.473 506.452C431.226 506.452 430.205 506.075 429.41 505.322C428.624 504.561 428.23 503.611 428.23 502.473C428.23 501.226 428.619 500.26 429.398 499.574C430.176 498.888 431.197 498.465 432.46 498.306L436.062 497.854ZM443.229 492.558H445.375V494.88C445.551 494.428 445.982 493.88 446.668 493.235C447.354 492.583 448.145 492.256 449.04 492.256C449.082 492.256 449.153 492.26 449.254 492.269C449.354 492.277 449.526 492.294 449.768 492.319V494.704C449.635 494.679 449.509 494.662 449.392 494.654C449.283 494.645 449.162 494.641 449.028 494.641C447.89 494.641 447.015 495.009 446.405 495.746C445.794 496.474 445.488 497.314 445.488 498.268V506H443.229V492.558ZM451.726 492.62H454.023V506H451.726V492.62ZM451.726 487.562H454.023V490.123H451.726V487.562ZM457.45 492.558H459.596V494.465C460.232 493.679 460.906 493.114 461.617 492.771C462.328 492.428 463.119 492.256 463.989 492.256C465.897 492.256 467.185 492.922 467.855 494.252C468.223 494.98 468.407 496.022 468.407 497.377V506H466.11V497.528C466.11 496.708 465.989 496.047 465.746 495.545C465.345 494.708 464.617 494.29 463.562 494.29C463.027 494.29 462.587 494.344 462.244 494.453C461.625 494.637 461.081 495.005 460.613 495.557C460.236 496.001 459.989 496.461 459.872 496.938C459.763 497.407 459.709 498.08 459.709 498.959V506H457.45V492.558ZM476.503 492.319C477.557 492.319 478.477 492.578 479.264 493.097C479.691 493.39 480.126 493.817 480.569 494.377V492.683H482.653V504.908C482.653 506.615 482.402 507.962 481.9 508.95C480.963 510.774 479.193 511.686 476.591 511.686C475.143 511.686 473.926 511.359 472.938 510.707C471.951 510.062 471.399 509.05 471.281 507.669H473.578C473.687 508.272 473.905 508.736 474.231 509.063C474.741 509.565 475.545 509.816 476.641 509.816C478.373 509.816 479.507 509.205 480.042 507.983C480.36 507.263 480.507 505.979 480.481 504.13C480.03 504.816 479.486 505.326 478.85 505.661C478.214 505.996 477.373 506.163 476.327 506.163C474.871 506.163 473.595 505.649 472.499 504.619C471.411 503.582 470.867 501.871 470.867 499.486C470.867 497.235 471.415 495.478 472.511 494.214C473.616 492.951 474.946 492.319 476.503 492.319ZM480.569 499.222C480.569 497.557 480.226 496.323 479.54 495.52C478.854 494.716 477.98 494.315 476.917 494.315C475.327 494.315 474.239 495.059 473.654 496.549C473.344 497.344 473.189 498.386 473.189 499.674C473.189 501.189 473.495 502.343 474.105 503.138C474.725 503.925 475.553 504.318 476.591 504.318C478.214 504.318 479.356 503.586 480.017 502.122C480.385 501.293 480.569 500.327 480.569 499.222Z" fill="white"/>
</g>
</svg>
