<svg width="912" height="421" viewBox="0 0 912 421" fill="none" xmlns="http://www.w3.org/2000/svg">
<path d="M216.49 240.712V173.128C216.49 163.784 211.626 160.84 204.202 160.84H154.922C148.778 160.84 144.298 162.632 144.298 169.288C144.298 175.944 148.778 177.736 154.922 177.736H195.498V197.704H159.914C154.41 197.704 150.058 199.24 150.058 205.768C150.058 212.296 154.41 213.832 159.914 213.832H195.498V236.104H153.898C147.754 236.104 143.274 237.896 143.274 244.552C143.274 251.208 147.754 253 153.898 253H204.202C211.626 253 216.49 250.056 216.49 240.712Z" fill="white"/>
<path d="M226.021 240.712V169.672C226.021 163.4 230.117 159.176 236.517 159.176C242.917 159.176 247.013 163.4 247.013 169.672V235.336H282.085C288.101 235.336 292.965 238.408 292.965 244.168C292.965 249.928 288.101 253 282.085 253H238.309C230.885 253 226.021 250.056 226.021 240.712Z" fill="white"/>
<rect x="51.4142" y="207.918" width="222.744" height="224.572" rx="61" transform="rotate(-45 51.4142 207.918)" stroke="white" stroke-width="2"/>
<rect x="2.82843" y="209.918" width="292.869" height="293.283" rx="91" transform="rotate(-45 2.82843 209.918)" stroke="white" stroke-width="4"/>
<g style="mix-blend-mode:difference">
<path d="M430.369 165.959H493.828V176.624H441.864V203.05H489.917V213.123H441.864V242.631H494.717V253H430.369V165.959ZM515.514 222.011C515.514 228.805 516.956 234.494 519.84 239.076C522.723 243.658 527.345 245.949 533.705 245.949C538.642 245.949 542.691 243.836 545.851 239.609C549.051 235.343 550.651 229.24 550.651 221.3C550.651 213.281 549.012 207.356 545.733 203.524C542.454 199.653 538.405 197.718 533.586 197.718C528.214 197.718 523.849 199.772 520.492 203.88C517.173 207.988 515.514 214.032 515.514 222.011ZM531.572 188.415C536.43 188.415 540.499 189.442 543.778 191.496C545.674 192.681 547.827 194.755 550.236 197.718V165.662H560.487V253H550.888V244.171C548.399 248.082 545.456 250.906 542.059 252.644C538.662 254.383 534.771 255.252 530.387 255.252C523.316 255.252 517.193 252.289 512.019 246.364C506.844 240.399 504.256 232.479 504.256 222.604C504.256 213.36 506.607 205.361 511.307 198.607C516.048 191.812 522.802 188.415 531.572 188.415ZM586.972 189.541V231.669C586.972 234.908 587.486 237.555 588.513 239.609C590.409 243.401 593.944 245.297 599.119 245.297C606.545 245.297 611.602 241.979 614.288 235.343C615.749 231.788 616.48 226.909 616.48 220.708V189.541H627.145V253H617.073L617.191 243.638C615.808 246.048 614.09 248.082 612.036 249.741C607.967 253.059 603.03 254.718 597.223 254.718C588.177 254.718 582.015 251.696 578.736 245.653C576.959 242.414 576.07 238.088 576.07 232.677V189.541H586.972ZM645.277 165.959H657.068V242.631H701.151V253H645.277V165.959ZM711.402 189.837H722.245V253H711.402V189.837ZM711.402 165.959H722.245V178.046H711.402V165.959ZM738.421 189.541H748.553V198.547C751.555 194.834 754.735 192.168 758.093 190.548C761.45 188.929 765.183 188.119 769.291 188.119C778.297 188.119 784.381 191.259 787.541 197.54C789.279 200.977 790.148 205.895 790.148 212.294V253H779.305V213.005C779.305 209.134 778.732 206.013 777.586 203.643C775.69 199.693 772.254 197.718 767.277 197.718C764.749 197.718 762.675 197.975 761.055 198.488C758.132 199.357 755.564 201.095 753.352 203.702C751.575 205.796 750.41 207.968 749.856 210.22C749.343 212.432 749.086 215.612 749.086 219.76V253H738.421V189.541ZM805.731 165.959H815.982V216.501L843.356 189.541H856.984L832.691 213.301L858.347 253H844.719L824.929 221.004L815.982 229.181V253H805.731V165.959Z" fill="white"/>
</g>
<g style="mix-blend-mode:difference">
<path d="M439.012 300.444L436.213 292.298L433.238 300.444H439.012ZM434.907 289.562H437.731L444.421 308H441.685L439.815 302.477H432.523L430.527 308H427.967L434.907 289.562ZM452.68 289.562H460.976C462.617 289.562 463.939 290.027 464.943 290.955C465.947 291.876 466.449 293.173 466.449 294.846C466.449 296.285 466.001 297.541 465.106 298.612C464.211 299.674 462.834 300.206 460.976 300.206H455.178V308H452.68V289.562ZM463.926 294.859C463.926 293.503 463.424 292.583 462.42 292.097C461.868 291.838 461.11 291.708 460.148 291.708H455.178V298.097H460.148C461.269 298.097 462.177 297.859 462.872 297.382C463.575 296.905 463.926 296.064 463.926 294.859ZM469.348 289.562H471.607V308H469.348V289.562ZM476.741 304.423C476.741 305.076 476.979 305.59 477.456 305.967C477.933 306.343 478.498 306.531 479.151 306.531C479.946 306.531 480.716 306.347 481.46 305.979C482.715 305.368 483.343 304.368 483.343 302.979V301.16C483.067 301.335 482.711 301.482 482.276 301.599C481.841 301.716 481.414 301.8 480.996 301.85L479.628 302.026C478.808 302.134 478.193 302.306 477.783 302.54C477.088 302.933 476.741 303.561 476.741 304.423ZM482.213 299.854C482.732 299.787 483.079 299.57 483.255 299.202C483.355 299.001 483.406 298.712 483.406 298.335C483.406 297.566 483.13 297.009 482.577 296.666C482.033 296.315 481.251 296.139 480.23 296.139C479.05 296.139 478.214 296.457 477.72 297.093C477.444 297.444 477.264 297.967 477.18 298.662H475.072C475.113 297.005 475.649 295.855 476.678 295.21C477.716 294.558 478.916 294.231 480.28 294.231C481.862 294.231 483.146 294.532 484.134 295.135C485.113 295.737 485.602 296.675 485.602 297.946V305.691C485.602 305.925 485.648 306.113 485.74 306.255C485.841 306.398 486.046 306.469 486.355 306.469C486.456 306.469 486.569 306.465 486.694 306.456C486.82 306.439 486.954 306.419 487.096 306.393V308.063C486.744 308.163 486.477 308.226 486.292 308.251C486.108 308.276 485.857 308.289 485.539 308.289C484.761 308.289 484.196 308.013 483.845 307.46C483.661 307.167 483.531 306.753 483.456 306.218C482.996 306.82 482.335 307.343 481.473 307.787C480.611 308.23 479.661 308.452 478.624 308.452C477.377 308.452 476.356 308.075 475.561 307.322C474.775 306.561 474.381 305.611 474.381 304.473C474.381 303.226 474.77 302.26 475.549 301.574C476.327 300.888 477.348 300.465 478.611 300.306L482.213 299.854ZM489.769 290.805H492.054V294.558H494.2V296.403H492.054V305.176C492.054 305.645 492.213 305.958 492.53 306.117C492.706 306.209 492.999 306.255 493.409 306.255C493.518 306.255 493.635 306.255 493.761 306.255C493.886 306.247 494.032 306.234 494.2 306.218V308C493.94 308.075 493.668 308.13 493.384 308.163C493.108 308.197 492.807 308.213 492.48 308.213C491.426 308.213 490.711 307.946 490.334 307.41C489.957 306.866 489.769 306.163 489.769 305.301V296.403H487.949V294.558H489.769V290.805ZM497.036 292.512C497.07 291.575 497.233 290.888 497.526 290.453C498.053 289.683 499.07 289.299 500.576 289.299C500.718 289.299 500.865 289.303 501.015 289.311C501.166 289.319 501.337 289.332 501.53 289.349V291.407C501.295 291.39 501.124 291.382 501.015 291.382C500.915 291.374 500.819 291.37 500.727 291.37C500.04 291.37 499.63 291.549 499.496 291.909C499.363 292.261 499.296 293.164 499.296 294.62H501.53V296.403H499.271V308H497.036V296.403H495.166V294.62H497.036V292.512ZM508.96 306.544C510.458 306.544 511.483 305.979 512.035 304.85C512.596 303.712 512.876 302.448 512.876 301.059C512.876 299.804 512.675 298.783 512.274 297.997C511.638 296.758 510.542 296.139 508.985 296.139C507.605 296.139 506.601 296.666 505.973 297.72C505.345 298.775 505.032 300.047 505.032 301.536C505.032 302.967 505.345 304.159 505.973 305.113C506.601 306.067 507.596 306.544 508.96 306.544ZM509.048 294.168C510.78 294.168 512.244 294.746 513.441 295.901C514.638 297.055 515.236 298.754 515.236 300.996C515.236 303.164 514.709 304.954 513.654 306.368C512.6 307.782 510.964 308.49 508.747 308.49C506.898 308.49 505.429 307.866 504.341 306.619C503.254 305.364 502.71 303.682 502.71 301.574C502.71 299.314 503.283 297.515 504.429 296.177C505.575 294.838 507.115 294.168 509.048 294.168ZM517.997 294.558H520.143V296.88C520.319 296.428 520.75 295.88 521.436 295.235C522.122 294.583 522.913 294.256 523.808 294.256C523.85 294.256 523.921 294.26 524.022 294.269C524.122 294.277 524.294 294.294 524.536 294.319V296.704C524.402 296.679 524.277 296.662 524.16 296.654C524.051 296.645 523.93 296.641 523.796 296.641C522.658 296.641 521.783 297.009 521.173 297.746C520.562 298.474 520.256 299.314 520.256 300.268V308H517.997V294.558ZM526.494 294.558H528.729V296.465C529.264 295.804 529.749 295.323 530.184 295.022C530.929 294.512 531.774 294.256 532.72 294.256C533.791 294.256 534.653 294.52 535.305 295.047C535.674 295.348 536.008 295.792 536.309 296.377C536.812 295.658 537.401 295.127 538.079 294.783C538.757 294.432 539.518 294.256 540.364 294.256C542.171 294.256 543.401 294.909 544.054 296.214C544.405 296.917 544.581 297.863 544.581 299.051V308H542.234V298.662C542.234 297.766 542.008 297.151 541.556 296.817C541.112 296.482 540.569 296.315 539.924 296.315C539.037 296.315 538.272 296.612 537.627 297.206C536.991 297.8 536.673 298.792 536.673 300.181V308H534.377V299.227C534.377 298.315 534.268 297.649 534.05 297.231C533.707 296.603 533.067 296.29 532.13 296.29C531.276 296.29 530.498 296.62 529.795 297.281C529.101 297.942 528.754 299.139 528.754 300.871V308H526.494V294.558ZM555.626 292.512C555.659 291.575 555.823 290.888 556.115 290.453C556.643 289.683 557.659 289.299 559.165 289.299C559.308 289.299 559.454 289.303 559.605 289.311C559.755 289.319 559.927 289.332 560.119 289.349V291.407C559.885 291.39 559.714 291.382 559.605 291.382C559.504 291.374 559.408 291.37 559.316 291.37C558.63 291.37 558.22 291.549 558.086 291.909C557.952 292.261 557.885 293.164 557.885 294.62H560.119V296.403H557.86V308H555.626V296.403H553.756V294.62H555.626V292.512ZM567.55 306.544C569.048 306.544 570.073 305.979 570.625 304.85C571.185 303.712 571.466 302.448 571.466 301.059C571.466 299.804 571.265 298.783 570.863 297.997C570.227 296.758 569.131 296.139 567.575 296.139C566.194 296.139 565.19 296.666 564.563 297.72C563.935 298.775 563.621 300.047 563.621 301.536C563.621 302.967 563.935 304.159 564.563 305.113C565.19 306.067 566.186 306.544 567.55 306.544ZM567.638 294.168C569.37 294.168 570.834 294.746 572.031 295.901C573.227 297.055 573.825 298.754 573.825 300.996C573.825 303.164 573.298 304.954 572.244 306.368C571.19 307.782 569.554 308.49 567.336 308.49C565.487 308.49 564.019 307.866 562.931 306.619C561.843 305.364 561.299 303.682 561.299 301.574C561.299 299.314 561.872 297.515 563.019 296.177C564.165 294.838 565.705 294.168 567.638 294.168ZM576.587 294.558H578.733V296.88C578.909 296.428 579.34 295.88 580.026 295.235C580.712 294.583 581.503 294.256 582.398 294.256C582.44 294.256 582.511 294.26 582.611 294.269C582.712 294.277 582.883 294.294 583.126 294.319V296.704C582.992 296.679 582.867 296.662 582.749 296.654C582.641 296.645 582.519 296.641 582.385 296.641C581.247 296.641 580.373 297.009 579.762 297.746C579.151 298.474 578.846 299.314 578.846 300.268V308H576.587V294.558ZM594.171 302.051C594.23 303.097 594.476 303.946 594.912 304.599C595.74 305.82 597.2 306.431 599.292 306.431C600.229 306.431 601.083 306.297 601.852 306.029C603.342 305.511 604.087 304.582 604.087 303.243C604.087 302.239 603.773 301.524 603.145 301.097C602.509 300.678 601.514 300.314 600.158 300.005L597.66 299.44C596.029 299.072 594.874 298.666 594.196 298.223C593.025 297.453 592.439 296.302 592.439 294.771C592.439 293.114 593.012 291.754 594.159 290.692C595.305 289.629 596.928 289.098 599.028 289.098C600.961 289.098 602.601 289.566 603.949 290.503C605.304 291.432 605.982 292.922 605.982 294.972H603.635C603.509 293.984 603.242 293.227 602.831 292.7C602.07 291.738 600.777 291.257 598.953 291.257C597.48 291.257 596.422 291.566 595.778 292.185C595.133 292.805 594.811 293.524 594.811 294.344C594.811 295.248 595.188 295.909 595.941 296.327C596.435 296.595 597.552 296.93 599.292 297.331L601.878 297.921C603.124 298.206 604.087 298.595 604.764 299.089C605.936 299.95 606.522 301.201 606.522 302.841C606.522 304.883 605.777 306.343 604.287 307.222C602.806 308.1 601.083 308.54 599.116 308.54C596.824 308.54 595.029 307.954 593.732 306.783C592.435 305.619 591.799 304.042 591.824 302.051H594.171ZM614.567 294.168C616.081 294.168 617.312 294.537 618.257 295.273C619.211 296.009 619.784 297.277 619.977 299.076H617.78C617.646 298.248 617.341 297.561 616.864 297.018C616.387 296.465 615.621 296.189 614.567 296.189C613.128 296.189 612.099 296.892 611.479 298.298C611.078 299.21 610.877 300.335 610.877 301.674C610.877 303.021 611.161 304.155 611.73 305.076C612.299 305.996 613.195 306.456 614.416 306.456C615.354 306.456 616.094 306.172 616.638 305.603C617.19 305.025 617.571 304.239 617.78 303.243H619.977C619.726 305.025 619.098 306.331 618.094 307.159C617.09 307.979 615.805 308.389 614.241 308.389C612.483 308.389 611.082 307.749 610.036 306.469C608.99 305.18 608.467 303.574 608.467 301.649C608.467 299.289 609.04 297.453 610.187 296.139C611.333 294.825 612.793 294.168 614.567 294.168ZM622.236 289.499H624.495V296.377C625.031 295.7 625.512 295.223 625.938 294.947C626.666 294.47 627.574 294.231 628.662 294.231C630.612 294.231 631.934 294.913 632.628 296.277C633.005 297.022 633.193 298.055 633.193 299.377V308H630.871V299.528C630.871 298.54 630.746 297.817 630.495 297.356C630.085 296.62 629.315 296.252 628.185 296.252C627.248 296.252 626.399 296.574 625.637 297.218C624.876 297.863 624.495 299.08 624.495 300.871V308H622.236V289.499ZM641.879 306.544C643.376 306.544 644.401 305.979 644.954 304.85C645.514 303.712 645.795 302.448 645.795 301.059C645.795 299.804 645.594 298.783 645.192 297.997C644.556 296.758 643.46 296.139 641.904 296.139C640.523 296.139 639.519 296.666 638.891 297.72C638.264 298.775 637.95 300.047 637.95 301.536C637.95 302.967 638.264 304.159 638.891 305.113C639.519 306.067 640.515 306.544 641.879 306.544ZM641.967 294.168C643.699 294.168 645.163 294.746 646.359 295.901C647.556 297.055 648.154 298.754 648.154 300.996C648.154 303.164 647.627 304.954 646.573 306.368C645.519 307.782 643.883 308.49 641.665 308.49C639.816 308.49 638.348 307.866 637.26 306.619C636.172 305.364 635.628 303.682 635.628 301.574C635.628 299.314 636.201 297.515 637.348 296.177C638.494 294.838 640.034 294.168 641.967 294.168ZM650.916 289.562H653.175V308H650.916V289.562ZM658.308 304.423C658.308 305.076 658.547 305.59 659.024 305.967C659.501 306.343 660.066 306.531 660.718 306.531C661.513 306.531 662.283 306.347 663.028 305.979C664.283 305.368 664.91 304.368 664.91 302.979V301.16C664.634 301.335 664.279 301.482 663.843 301.599C663.408 301.716 662.982 301.8 662.563 301.85L661.195 302.026C660.375 302.134 659.76 302.306 659.35 302.54C658.656 302.933 658.308 303.561 658.308 304.423ZM663.781 299.854C664.299 299.787 664.647 299.57 664.822 299.202C664.923 299.001 664.973 298.712 664.973 298.335C664.973 297.566 664.697 297.009 664.145 296.666C663.601 296.315 662.818 296.139 661.798 296.139C660.618 296.139 659.781 296.457 659.287 297.093C659.011 297.444 658.831 297.967 658.748 298.662H656.639C656.681 297.005 657.216 295.855 658.246 295.21C659.283 294.558 660.484 294.231 661.848 294.231C663.429 294.231 664.714 294.532 665.701 295.135C666.68 295.737 667.17 296.675 667.17 297.946V305.691C667.17 305.925 667.216 306.113 667.308 306.255C667.408 306.398 667.613 306.469 667.923 306.469C668.023 306.469 668.136 306.465 668.262 306.456C668.387 306.439 668.521 306.419 668.663 306.393V308.063C668.312 308.163 668.044 308.226 667.86 308.251C667.676 308.276 667.425 308.289 667.107 308.289C666.329 308.289 665.764 308.013 665.412 307.46C665.228 307.167 665.099 306.753 665.023 306.218C664.563 306.82 663.902 307.343 663.04 307.787C662.178 308.23 661.229 308.452 660.191 308.452C658.944 308.452 657.923 308.075 657.128 307.322C656.342 306.561 655.949 305.611 655.949 304.473C655.949 303.226 656.338 302.26 657.116 301.574C657.894 300.888 658.915 300.465 660.178 300.306L663.781 299.854ZM670.947 294.558H673.094V296.88C673.269 296.428 673.7 295.88 674.387 295.235C675.073 294.583 675.863 294.256 676.759 294.256C676.801 294.256 676.872 294.26 676.972 294.269C677.073 294.277 677.244 294.294 677.487 294.319V296.704C677.353 296.679 677.227 296.662 677.11 296.654C677.001 296.645 676.88 296.641 676.746 296.641C675.608 296.641 674.734 297.009 674.123 297.746C673.512 298.474 673.207 299.314 673.207 300.268V308H670.947V294.558ZM679.508 289.562H681.767V308H679.508V289.562ZM693.565 294.558H696.063C695.745 295.419 695.038 297.386 693.942 300.457C693.122 302.766 692.435 304.649 691.883 306.105C690.578 309.535 689.657 311.627 689.122 312.38C688.586 313.133 687.666 313.51 686.361 313.51C686.043 313.51 685.796 313.497 685.62 313.472C685.453 313.447 685.243 313.401 684.992 313.334V311.276C685.386 311.385 685.67 311.452 685.846 311.477C686.022 311.502 686.176 311.514 686.31 311.514C686.729 311.514 687.034 311.443 687.227 311.301C687.427 311.167 687.595 311 687.729 310.799C687.77 310.732 687.921 310.389 688.18 309.77C688.44 309.151 688.628 308.69 688.745 308.389L683.775 294.558H686.335L689.938 305.502L693.565 294.558ZM714.049 298.009C715.22 298.009 716.145 297.775 716.823 297.306C717.509 296.838 717.852 295.993 717.852 294.771C717.852 293.457 717.375 292.562 716.421 292.085C715.911 291.834 715.229 291.708 714.375 291.708H708.275V298.009H714.049ZM705.777 289.562H714.312C715.718 289.562 716.877 289.767 717.789 290.177C719.521 290.964 720.387 292.415 720.387 294.532C720.387 295.637 720.157 296.541 719.697 297.244C719.245 297.946 718.609 298.511 717.789 298.938C718.509 299.231 719.048 299.616 719.408 300.093C719.776 300.57 719.981 301.344 720.023 302.415L720.111 304.887C720.136 305.59 720.195 306.113 720.287 306.456C720.437 307.042 720.705 307.418 721.09 307.586V308H718.028C717.944 307.841 717.877 307.636 717.827 307.385C717.776 307.134 717.735 306.649 717.701 305.929L717.551 302.854C717.492 301.649 717.044 300.842 716.208 300.432C715.731 300.206 714.982 300.093 713.961 300.093H708.275V308H705.777V289.562ZM729.349 294.256C730.303 294.256 731.227 294.482 732.123 294.934C733.018 295.378 733.7 295.955 734.168 296.666C734.62 297.344 734.922 298.135 735.072 299.038C735.206 299.658 735.273 300.645 735.273 302H725.42C725.462 303.364 725.784 304.461 726.387 305.289C726.989 306.109 727.922 306.519 729.186 306.519C730.365 306.519 731.307 306.13 732.01 305.352C732.411 304.9 732.696 304.377 732.863 303.783H735.085C735.026 304.276 734.83 304.829 734.495 305.44C734.168 306.042 733.8 306.536 733.39 306.921C732.704 307.59 731.855 308.042 730.842 308.276C730.298 308.41 729.683 308.477 728.997 308.477C727.324 308.477 725.906 307.87 724.742 306.657C723.579 305.435 722.998 303.728 722.998 301.536C722.998 299.377 723.584 297.624 724.755 296.277C725.926 294.93 727.458 294.256 729.349 294.256ZM732.951 300.206C732.859 299.227 732.646 298.444 732.311 297.859C731.692 296.771 730.658 296.227 729.211 296.227C728.173 296.227 727.303 296.603 726.6 297.356C725.897 298.101 725.525 299.051 725.483 300.206H732.951ZM739.402 303.783C739.469 304.536 739.658 305.113 739.967 305.515C740.536 306.243 741.524 306.607 742.929 306.607C743.766 306.607 744.502 306.427 745.138 306.067C745.774 305.699 746.092 305.134 746.092 304.373C746.092 303.795 745.837 303.356 745.327 303.055C745 302.871 744.356 302.657 743.394 302.415L741.599 301.963C740.453 301.678 739.607 301.36 739.064 301.009C738.093 300.398 737.608 299.553 737.608 298.474C737.608 297.202 738.064 296.172 738.976 295.386C739.896 294.599 741.13 294.206 742.678 294.206C744.703 294.206 746.163 294.8 747.059 295.988C747.619 296.741 747.891 297.553 747.875 298.423H745.741C745.699 297.913 745.519 297.449 745.201 297.03C744.682 296.436 743.783 296.139 742.503 296.139C741.649 296.139 741.001 296.302 740.557 296.629C740.122 296.955 739.904 297.386 739.904 297.921C739.904 298.507 740.193 298.976 740.771 299.327C741.105 299.536 741.599 299.72 742.252 299.879L743.745 300.243C745.368 300.637 746.456 301.017 747.009 301.385C747.887 301.963 748.326 302.871 748.326 304.109C748.326 305.306 747.87 306.339 746.958 307.209C746.055 308.079 744.674 308.515 742.816 308.515C740.817 308.515 739.398 308.063 738.561 307.159C737.733 306.247 737.29 305.122 737.231 303.783H739.402ZM756.51 294.256C757.464 294.256 758.388 294.482 759.284 294.934C760.179 295.378 760.861 295.955 761.33 296.666C761.781 297.344 762.083 298.135 762.233 299.038C762.367 299.658 762.434 300.645 762.434 302H752.581C752.623 303.364 752.945 304.461 753.548 305.289C754.15 306.109 755.083 306.519 756.347 306.519C757.527 306.519 758.468 306.13 759.171 305.352C759.572 304.9 759.857 304.377 760.024 303.783H762.246C762.187 304.276 761.991 304.829 761.656 305.44C761.33 306.042 760.961 306.536 760.551 306.921C759.865 307.59 759.016 308.042 758.003 308.276C757.46 308.41 756.845 308.477 756.158 308.477C754.485 308.477 753.067 307.87 751.904 306.657C750.74 305.435 750.159 303.728 750.159 301.536C750.159 299.377 750.745 297.624 751.916 296.277C753.088 294.93 754.619 294.256 756.51 294.256ZM760.112 300.206C760.02 299.227 759.807 298.444 759.472 297.859C758.853 296.771 757.819 296.227 756.372 296.227C755.334 296.227 754.464 296.603 753.761 297.356C753.058 298.101 752.686 299.051 752.644 300.206H760.112ZM766.953 304.423C766.953 305.076 767.191 305.59 767.668 305.967C768.145 306.343 768.71 306.531 769.362 306.531C770.157 306.531 770.927 306.347 771.672 305.979C772.927 305.368 773.555 304.368 773.555 302.979V301.16C773.278 301.335 772.923 301.482 772.488 301.599C772.053 301.716 771.626 301.8 771.207 301.85L769.839 302.026C769.019 302.134 768.404 302.306 767.994 302.54C767.3 302.933 766.953 303.561 766.953 304.423ZM772.425 299.854C772.944 299.787 773.291 299.57 773.467 299.202C773.567 299.001 773.617 298.712 773.617 298.335C773.617 297.566 773.341 297.009 772.789 296.666C772.245 296.315 771.463 296.139 770.442 296.139C769.262 296.139 768.425 296.457 767.932 297.093C767.655 297.444 767.476 297.967 767.392 298.662H765.283C765.325 297.005 765.861 295.855 766.89 295.21C767.927 294.558 769.128 294.231 770.492 294.231C772.073 294.231 773.358 294.532 774.345 295.135C775.324 295.737 775.814 296.675 775.814 297.946V305.691C775.814 305.925 775.86 306.113 775.952 306.255C776.052 306.398 776.257 306.469 776.567 306.469C776.667 306.469 776.78 306.465 776.906 306.456C777.031 306.439 777.165 306.419 777.307 306.393V308.063C776.956 308.163 776.688 308.226 776.504 308.251C776.32 308.276 776.069 308.289 775.751 308.289C774.973 308.289 774.408 308.013 774.057 307.46C773.873 307.167 773.743 306.753 773.668 306.218C773.207 306.82 772.546 307.343 771.684 307.787C770.823 308.23 769.873 308.452 768.835 308.452C767.588 308.452 766.568 308.075 765.773 307.322C764.986 306.561 764.593 305.611 764.593 304.473C764.593 303.226 764.982 302.26 765.76 301.574C766.538 300.888 767.559 300.465 768.823 300.306L772.425 299.854ZM779.592 294.558H781.738V296.88C781.914 296.428 782.345 295.88 783.031 295.235C783.717 294.583 784.508 294.256 785.403 294.256C785.445 294.256 785.516 294.26 785.616 294.269C785.717 294.277 785.888 294.294 786.131 294.319V296.704C785.997 296.679 785.872 296.662 785.754 296.654C785.646 296.645 785.524 296.641 785.39 296.641C784.252 296.641 783.378 297.009 782.767 297.746C782.156 298.474 781.851 299.314 781.851 300.268V308H779.592V294.558ZM793.273 294.168C794.787 294.168 796.017 294.537 796.963 295.273C797.917 296.009 798.49 297.277 798.682 299.076H796.486C796.352 298.248 796.047 297.561 795.57 297.018C795.093 296.465 794.327 296.189 793.273 296.189C791.833 296.189 790.804 296.892 790.185 298.298C789.783 299.21 789.583 300.335 789.583 301.674C789.583 303.021 789.867 304.155 790.436 305.076C791.005 305.996 791.9 306.456 793.122 306.456C794.059 306.456 794.8 306.172 795.344 305.603C795.896 305.025 796.277 304.239 796.486 303.243H798.682C798.431 305.025 797.804 306.331 796.8 307.159C795.795 307.979 794.511 308.389 792.946 308.389C791.189 308.389 789.788 307.749 788.742 306.469C787.696 305.18 787.173 303.574 787.173 301.649C787.173 299.289 787.746 297.453 788.892 296.139C790.039 294.825 791.499 294.168 793.273 294.168ZM800.942 289.499H803.201V296.377C803.736 295.7 804.217 295.223 804.644 294.947C805.372 294.47 806.28 294.231 807.368 294.231C809.317 294.231 810.64 294.913 811.334 296.277C811.711 297.022 811.899 298.055 811.899 299.377V308H809.577V299.528C809.577 298.54 809.451 297.817 809.2 297.356C808.79 296.62 808.02 296.252 806.891 296.252C805.954 296.252 805.104 296.574 804.343 297.218C803.581 297.863 803.201 299.08 803.201 300.871V308H800.942V289.499ZM824.337 302.051C824.396 303.097 824.643 303.946 825.078 304.599C825.906 305.82 827.366 306.431 829.458 306.431C830.395 306.431 831.249 306.297 832.019 306.029C833.508 305.511 834.253 304.582 834.253 303.243C834.253 302.239 833.939 301.524 833.311 301.097C832.675 300.678 831.68 300.314 830.324 300.005L827.826 299.44C826.195 299.072 825.04 298.666 824.362 298.223C823.191 297.453 822.605 296.302 822.605 294.771C822.605 293.114 823.178 291.754 824.325 290.692C825.471 289.629 827.094 289.098 829.195 289.098C831.127 289.098 832.767 289.566 834.115 290.503C835.47 291.432 836.148 292.922 836.148 294.972H833.801C833.675 293.984 833.408 293.227 832.998 292.7C832.236 291.738 830.943 291.257 829.119 291.257C827.647 291.257 826.588 291.566 825.944 292.185C825.299 292.805 824.977 293.524 824.977 294.344C824.977 295.248 825.354 295.909 826.107 296.327C826.601 296.595 827.718 296.93 829.458 297.331L832.044 297.921C833.29 298.206 834.253 298.595 834.93 299.089C836.102 299.95 836.688 301.201 836.688 302.841C836.688 304.883 835.943 306.343 834.454 307.222C832.972 308.1 831.249 308.54 829.282 308.54C826.99 308.54 825.195 307.954 823.898 306.783C822.601 305.619 821.965 304.042 821.99 302.051H824.337ZM839.549 289.499H841.809V296.377C842.344 295.7 842.825 295.223 843.252 294.947C843.98 294.47 844.888 294.231 845.976 294.231C847.925 294.231 849.247 294.913 849.942 296.277C850.318 297.022 850.507 298.055 850.507 299.377V308H848.185V299.528C848.185 298.54 848.059 297.817 847.808 297.356C847.398 296.62 846.628 296.252 845.499 296.252C844.562 296.252 843.712 296.574 842.951 297.218C842.189 297.863 841.809 299.08 841.809 300.871V308H839.549V289.499ZM855.59 304.423C855.59 305.076 855.828 305.59 856.305 305.967C856.782 306.343 857.347 306.531 858 306.531C858.795 306.531 859.565 306.347 860.309 305.979C861.564 305.368 862.192 304.368 862.192 302.979V301.16C861.916 301.335 861.56 301.482 861.125 301.599C860.69 301.716 860.263 301.8 859.845 301.85L858.477 302.026C857.657 302.134 857.042 302.306 856.632 302.54C855.937 302.933 855.59 303.561 855.59 304.423ZM861.062 299.854C861.581 299.787 861.928 299.57 862.104 299.202C862.205 299.001 862.255 298.712 862.255 298.335C862.255 297.566 861.979 297.009 861.426 296.666C860.882 296.315 860.1 296.139 859.079 296.139C857.899 296.139 857.063 296.457 856.569 297.093C856.293 297.444 856.113 297.967 856.029 298.662H853.921C853.962 297.005 854.498 295.855 855.527 295.21C856.565 294.558 857.766 294.231 859.129 294.231C860.711 294.231 861.995 294.532 862.983 295.135C863.962 295.737 864.451 296.675 864.451 297.946V305.691C864.451 305.925 864.497 306.113 864.589 306.255C864.69 306.398 864.895 306.469 865.204 306.469C865.305 306.469 865.418 306.465 865.543 306.456C865.669 306.439 865.803 306.419 865.945 306.393V308.063C865.593 308.163 865.326 308.226 865.142 308.251C864.957 308.276 864.706 308.289 864.388 308.289C863.61 308.289 863.045 308.013 862.694 307.46C862.51 307.167 862.38 306.753 862.305 306.218C861.845 306.82 861.184 307.343 860.322 307.787C859.46 308.23 858.51 308.452 857.473 308.452C856.226 308.452 855.205 308.075 854.41 307.322C853.624 306.561 853.23 305.611 853.23 304.473C853.23 303.226 853.619 302.26 854.398 301.574C855.176 300.888 856.197 300.465 857.46 300.306L861.062 299.854ZM868.229 294.558H870.375V296.88C870.551 296.428 870.982 295.88 871.668 295.235C872.354 294.583 873.145 294.256 874.04 294.256C874.082 294.256 874.153 294.26 874.254 294.269C874.354 294.277 874.526 294.294 874.768 294.319V296.704C874.635 296.679 874.509 296.662 874.392 296.654C874.283 296.645 874.162 296.641 874.028 296.641C872.89 296.641 872.015 297.009 871.405 297.746C870.794 298.474 870.488 299.314 870.488 300.268V308H868.229V294.558ZM876.726 294.62H879.023V308H876.726V294.62ZM876.726 289.562H879.023V292.123H876.726V289.562ZM882.45 294.558H884.596V296.465C885.232 295.679 885.906 295.114 886.617 294.771C887.328 294.428 888.119 294.256 888.989 294.256C890.897 294.256 892.185 294.922 892.855 296.252C893.223 296.98 893.407 298.022 893.407 299.377V308H891.11V299.528C891.11 298.708 890.989 298.047 890.746 297.545C890.345 296.708 889.617 296.29 888.562 296.29C888.027 296.29 887.587 296.344 887.244 296.453C886.625 296.637 886.081 297.005 885.613 297.557C885.236 298.001 884.989 298.461 884.872 298.938C884.763 299.407 884.709 300.08 884.709 300.959V308H882.45V294.558ZM901.503 294.319C902.557 294.319 903.477 294.578 904.264 295.097C904.691 295.39 905.126 295.817 905.569 296.377V294.683H907.653V306.908C907.653 308.615 907.402 309.962 906.9 310.95C905.963 312.774 904.193 313.686 901.591 313.686C900.143 313.686 898.926 313.359 897.938 312.707C896.951 312.062 896.399 311.05 896.281 309.669H898.578C898.687 310.272 898.905 310.736 899.231 311.063C899.741 311.565 900.545 311.816 901.641 311.816C903.373 311.816 904.507 311.205 905.042 309.983C905.36 309.263 905.507 307.979 905.481 306.13C905.03 306.816 904.486 307.326 903.85 307.661C903.214 307.996 902.373 308.163 901.327 308.163C899.871 308.163 898.595 307.649 897.499 306.619C896.411 305.582 895.867 303.871 895.867 301.486C895.867 299.235 896.415 297.478 897.511 296.214C898.616 294.951 899.946 294.319 901.503 294.319ZM905.569 301.222C905.569 299.557 905.226 298.323 904.54 297.52C903.854 296.716 902.98 296.315 901.917 296.315C900.327 296.315 899.239 297.059 898.654 298.549C898.344 299.344 898.189 300.386 898.189 301.674C898.189 303.189 898.495 304.343 899.105 305.138C899.725 305.925 900.553 306.318 901.591 306.318C903.214 306.318 904.356 305.586 905.017 304.122C905.385 303.293 905.569 302.327 905.569 301.222Z" fill="white"/>
</g>
</svg>
