<svg width="588" height="588" viewBox="0 0 588 588" fill="none" xmlns="http://www.w3.org/2000/svg">
<path d="M302.756 336.813V242.298C302.756 229.231 295.954 225.114 285.571 225.114H216.655C208.062 225.114 201.797 227.62 201.797 236.928C201.797 246.236 208.062 248.742 216.655 248.742H273.399V276.667H223.636C215.939 276.667 209.852 278.815 209.852 287.944C209.852 297.073 215.939 299.222 223.636 299.222H273.399V330.368H215.223C206.63 330.368 200.365 332.874 200.365 342.183C200.365 351.491 206.63 353.997 215.223 353.997H285.571C295.954 353.997 302.756 349.88 302.756 336.813Z" fill="white"/>
<path d="M315.844 337.617V238.27C315.844 229.498 321.572 223.591 330.523 223.591C339.473 223.591 345.201 229.498 345.201 238.27V330.099H394.248C402.662 330.099 409.464 334.395 409.464 342.45C409.464 350.505 402.662 354.802 394.248 354.802H333.029C322.647 354.802 315.844 350.684 315.844 337.617Z" fill="white"/>
<rect x="71.9014" y="290.767" width="311.501" height="314.058" rx="85.3069" transform="rotate(-45 71.9014 290.767)" stroke="white" stroke-width="2.79695"/>
<rect x="3.95548" y="293.564" width="409.569" height="410.148" rx="127.261" transform="rotate(-45 3.95548 293.564)" stroke="white" stroke-width="5.59389"/>
</svg>
