<svg width="55" height="50" viewBox="0 0 55 50" fill="none" xmlns="http://www.w3.org/2000/svg">
<path d="M27.5148 36.9051V14.3847C27.5148 11.2711 25.894 10.2901 23.4202 10.2901H6.99911C4.9518 10.2901 3.45898 10.8872 3.45898 13.1051C3.45898 15.323 4.9518 15.9202 6.99911 15.9202H20.5199V22.5739H8.66255C6.8285 22.5739 5.37833 23.0857 5.37833 25.261C5.37833 27.4363 6.8285 27.9481 8.66255 27.9481H20.5199V35.3696H6.65789C4.61059 35.3696 3.11776 35.9667 3.11776 38.1846C3.11776 40.4025 4.61059 40.9997 6.65789 40.9997H23.4202C25.894 40.9997 27.5148 40.0187 27.5148 36.9051Z" fill="white"/>
<path d="M31.0284 36.9054V13.2334C31.0284 11.1435 32.3933 9.73593 34.5259 9.73593C36.6585 9.73593 38.0234 11.1435 38.0234 13.2334V35.114H49.7101C51.7147 35.114 53.3355 36.1376 53.3355 38.057C53.3355 39.9763 51.7147 41 49.7101 41H35.123C32.6492 41 31.0284 40.019 31.0284 36.9054Z" fill="white"/>
</svg>
